<svg xmlns="http://www.w3.org/2000/svg" viewBox="0 0 844.26 761.44"><defs><style>.cls-1{fill:#fff;}</style></defs><title>kanye</title><g id="Layer_3" data-name="Layer 3"><path d="M613.67,376.3c0,13.62.37,26.89-.1,40.13-.57,16.25-.1,32.82-3.31,48.59-3,14.85-9.61,29.13-15.82,43.13C589.64,519,583,529,576.74,540.09l11.11,4.3a87.11,87.11,0,0,1,34.73-34.92c15.69-8.83,32.95-14.88,49.55-22.07,13.85-6,28.65-10.09,40-20.85,1-.9,2.48-1.18,4-1.85,2.33,12.44-3.8,22.68-7.13,33.34q-11.33,36.19-44.08,56c-9.89,6-19,13.21-27.81,19.41,10.44,14.11,20.24,27.06,29.69,40.27,5.84,8.15,10.77,17,16.9,24.9,2.4,3.1,6.77,5,10.59,6.64,23.82,10.3,48.14,19.53,71.49,30.79,17.54,8.46,34,19.17,50.64,29.42,6.06,3.73,11.16,9,16.69,13.6,1.1.91,2.23,2.78,3.21,2.69,9.69-.83,7.79,6,7.82,11.53,0,8.92,0,17.85,0,28.12-6.86,0-13.5,0-20.13,0-1.94,0-3.87-.1-5.8-.1H.58c0-13.65-1.7-27.16.73-39.89,1.2-6.31,9.25-12.29,15.51-16.47C39.93,689.51,65.39,679,92,671.14c2.88-.86,5.1-5.65,6.63-9.07,11.77-26.26,26.13-51.2,45-72.77A182,182,0,0,1,190,551.07c8.32-4.78,15.83-11,23.65-16.64,8.57-6.18,2.53-14.06,2-21-1-12.26-3.27-24.42-4.84-36.64-1.13-8.74-1.85-17.53-3.1-26.25-.21-1.46-1.95-3.12-3.41-3.92-13.19-7.29-23.51-17.54-33.85-28.53-14.66-15.59-19.9-34-21.81-53.89a410.22,410.22,0,0,1-1.42-46.78c.17-9.25,4-17.26,12.79-22.5,2-1.21,2.61-5.91,2.71-9,.32-10.67.11-21.35.13-32,.05-19.38-.07-38.75.25-58.13.24-14.14.37-28.35,1.87-42.39,1.16-10.74,4-21.35,6.75-31.88,4.85-19,18.53-32,32.68-43.68A273.21,273.21,0,0,1,247.19,49.1c18.37-10.05,37.67-18.45,56.86-26.89,14-6.15,28.24-12.06,42.84-16.53C367.17-.54,388.12-1.25,409.2,1.6c9.9,1.34,19.87,2.22,29.84,3,20,1.57,38.07,8.89,55.14,18.85C516.29,36.36,537,51.39,555.31,69.23c9.14,8.91,16.72,19.53,20.13,32.61,2.73,10.44,5.68,21.07,10.47,30.65,6.6,13.22,10.29,27,12.33,41.39.86,6.11,2.12,12.23,2.28,18.36.34,13.42.1,26.85.1,40.07,10.55,3.2,19.35,6.66,28.47,8.44,12.69,2.48,24.65,16.27,23.62,30-1,12.81-2.77,25.56-4.11,38.34-.26,2.39-.07,4.82-.15,7.24q-.71,20.49-1.44,41c-.32,8.85-7.76,12.22-16.59,15.35C625.18,374.53,619.49,375.09,613.67,376.3ZM264.6,310.25H221c2.71,9.82,5.11,18.5,7.51,27.18l-2.44.95c-2.25-2.68-4.36-5.49-6.76-8-12.16-12.83-24.74-24.63-44.56-22.83-9.51.87-17.63,8.35-17.56,18,.05,7.39.06,14.94,1.53,22.13,3.39,16.58,3.11,33.89,12.81,49.22,8.61,13.62,18,26.07,31.24,35.32,2.26,1.58,5.08,2.36,7.64,3.49,5.21,2.31,9,1.5,11-4.47,1.5-4.46,3.42-8.79,5.31-13.11,2-4.55,4.13-9,5.72-12.48,0,14.95-.38,30.56.14,46.14.34,10.63,1.75,21.35,9.31,29.82,4.24,4.75,9.36,8.75,13.32,13.7,9.39,11.74,18.33,23.84,27.44,35.79,3,4,5.46,8.57,9.14,11.77,9.14,7.93,18.26,16.12,28.45,22.51,11.65,7.31,24.45,12.79,36.75,19.06l2.45-1.58c1.16-19,2.37-38,3.43-57,.63-11.25-.14-22.72,1.87-33.7,1.46-8,4.54-17.46,10.23-22.54,14.93-13.35,30.59-26.67,48.07-36.11,13.09-7.07,25.8-20.6,45-11.12,6.61,3.26,7.79,8,7.3,11.11-1.07,6.73-5.73.33-8.85.59-.46,0-.95-.3-1.4-.23-14.91,2.35-30,4.22-43.12,12.63-7.52,4.81-14.84,10-22.44,14.66-12.64,7.79-22.11,18.4-27.1,32.27-2.11,5.87-1.93,12.66-2.23,19.06-.69,14.63-1,29.28-1.55,43.91-.2,4.9-.9,9.79-1.47,15.74l7.09-2.86a10.4,10.4,0,0,1,1.4,1.56c5.89,9.82,13.28,17.07,26,15.1,1.67-.26,4-.68,4.73-1.84,4.73-7.38,10.75-7.11,17.76-3.87,6.33,2.93,12.18,1.33,18.28-1.73,3.42-1.71,7.92-1.88,11.91-1.76,8.89.28,17.75,1.44,26.64,1.73,4.94.16,10.19-1.91,14.82-.86,10.13,2.3,18,.07,24.74-7.82,3.34-3.91,7.09-9.89,11.1-10.27,6.23-.59,7.44-3.88,8.55-8,1.61-6.1,3.7-12.37,3.71-18.57,0-20.92-.68-41.84-1.4-62.75-.08-2.09-1.73-4.69-3.44-6.07-8.64-7-17.12-14.26-26.48-20.14-8.41-5.3-17-13-28.45-6-1.38.84-3.92-.23-5.91-.41.28-3.28.57-5.58.64-7.88.15-5,3-7.22,7.45-5.88,7.2,2.16,15.66,3.38,20.95,8,10.64,9.3,23.09,15.65,34.15,24,10.58,8,12.69,20.65,12.7,33.07,0,9-1.87,17.91-2.75,26.88-1.25,12.82,6.53,25.62.16,38.5-.08.16.5.66.78,1,.48-.05,1.06.06,1.38-.18a14,14,0,0,0,2.66-2.42c8.3-10.81,16.17-21.75,21.42-34.64,3.83-9.4,10.75-17.5,15-26.78,7.72-16.81,10.51-34.87,10.72-53.29.17-15.21-.09-30.44.11-45.65.06-4.85,1-9.68,1.48-14.42-19-2.22-36.93-4-54.78-6.55-12.71-1.85-24.63-6.09-32.81-17-10.47-13.92-16-30-19.8-46.76-2.54-11.2-9-17.59-18.73-18.76-8.51-1-20.07,2.86-24.39,13.37-5.41,13.16-11.74,25.94-17.76,38.84-10.56,22.62-29.21,31.33-53.16,30.36-17.7-.71-35.4-1.59-53-2.94a364.35,364.35,0,0,1-38.18-4.49c-13.25-2.43-28.34-16.88-26.8-33.52C266.25,323.62,265,316.68,264.6,310.25Zm328.78-79.78c0-7.5.3-13.91-.08-20.29-.54-9.26-.49-18.76-2.64-27.69a333.4,333.4,0,0,0-12.55-39.84,195.7,195.7,0,0,0-13.66-28.18c-3.63-6.31-8.67-11.83-13.28-17.54-1.61-2-3.62-4.57-5.82-5-7.42-1.51-15-3.12-22.51-3-15.76.33-31.53,1.36-47.23,2.8-20.5,1.87-39.08-7.19-58.84-9.45-16.48-1.89-32.86-4.76-49.36-6.47-14.46-1.49-29-2-43.54-2.87a12.22,12.22,0,0,0-2.76.45c-19.56,3.39-37.94,9.65-53.45,22.56-4.2,3.5-9.17,6.88-11.63,11.47a200.82,200.82,0,0,0-13,30c-3.33,9.75-6.33,19.63-3.63,30.55a67.74,67.74,0,0,1,1.49,22.8c-1.62,15.65-5.12,30.79-14.12,44.38-10.67,16.1-11.31,34.5-10.32,53.1.33,6.15,3.92,6.88,8.73,6.15,9.13-1.38,18.21-3.06,27.37-4.18,12.2-1.49,13.08-2.47,13.3-15.22a136.39,136.39,0,0,1,1.48-18.51c1.82-11.65,12.12-23.65,24.67-24.41,7.81-.46,15.58-1.74,23.35-2.82,5.85-.82,11.66-2.66,17.51-2.75q68-1,135.94-1.48c12.7-.08,25.41.88,38.12,1.37.95,0,1.9.22,2.86.24,14.46.44,28.92.82,43.39,1.3,8.85.29,17.7.62,26.54,1.12C584.59,229.4,589.44,230.07,593.38,230.47ZM556.63,575.38c-5.3,5.86-10.22,11.78-15.67,17.18-6.56,6.5-14.23,12-20.22,19-9.13,10.61-20.44,14.73-33.94,15.11-6.63.18-13.2,1.59-19.82,2.18-8.29.74-16.61,1.73-24.91,1.61-7.31-.1-14.63-1.41-21.9-2.5-4.85-.74-9.65-1.92-14.43-3.11a137.1,137.1,0,0,1-14.88-4.16c-8.89-3.32-17.73-6.84-26.36-10.77-4.64-2.11-8.71-5.44-13.23-7.86-3.69-2-8.08-2.86-11.44-5.25-7.32-5.23-13.69-11.93-21.34-16.56-21.06-12.75-37.63-29.87-52.25-49.4-9-12.07-19.28-23.23-28.84-34.92-4.26-5.21-9.34-10.21-12-16.21-3.23-7.39-4.29-15.73-6.65-25.08-.92,2.23-2.22,3.9-2.16,5.52A149.74,149.74,0,0,0,218,476.48c2,14.28,3.9,28.6,6.62,42.75,2,10.19,7.54,20.18,7.38,30.18-.51,31.62,3.85,63.39-3.55,94.9-2.59,11-1.43,22.92-1.69,34.42a8.21,8.21,0,0,0,2.25,5.49c13.1,12.5,26.2,25,39.68,37.1,7.23,6.48,14.47,13.66,23,17.82,19.43,9.47,39.66,16.62,62.22,13.69,9.73-1.26,19.78.11,29.67-.31a188.81,188.81,0,0,0,21.94-2.47c11.41-1.83,22.8-3.92,34.14-6.19,8.05-1.61,16.82-2.18,23.85-5.9,14.55-7.71,30.16-12,45.52-17.17,15.72-5.34,28.49-15.61,41.09-25.91,5.17-4.22,7.93-10.34,8.51-17.3.29-3.5,1.67-6.91,2-10.41,1.32-13.5,4-27.12,3.21-40.53C562.94,609.46,559.18,592.43,556.63,575.38ZM278.84,306.29l-2.44.15c1.31,9.41,2.12,18.91,4.08,28.18,1.86,8.82,5.69,16.89,15.95,18.76s20.5,4.41,30.82,4.74c22.24.73,44.54.55,66.8.13,13.81-.27,24.41-7.76,31.72-18.8a305.36,305.36,0,0,0,19.63-34.84c7.62-15.58,18-24.56,36.71-21.89,11.31,1.61,19.29,7.42,24,16.47,4.81,9.28,6.6,20.08,10.5,29.9,2.52,6.35,5.17,13.63,10,17.9,11.89,10.44,27.33,14,42.57,15.41s30.68,1.75,45.73-.06c19.09-2.3,24-5.66,23.65-23.72-.43-18.72-2.44-37.58,5.08-56,4.16-10.23-4-26-13.19-31.1-14.6-8.06-30.68-11.18-47-11.82q-57.66-2.25-115.37-2.92c-27.19-.28-54.44.08-81.59,1.49-29.77,1.54-59.71-4.36-89.45,3.55-11,2.92-17.9,6.78-18.18,19.14C278.58,276,278.84,291.17,278.84,306.29ZM219.05,544c-24,7.7-41.5,24-58.21,40.77-10.23,10.27-18.43,22.59-27.26,34.21-3.26,4.3-5.17,9.69-8.65,13.77-13,15.28-19.35,34-27,51.89-4,9.46-5.2,20.13-9,29.69-5.16,12.87-11.67,25.21-17.63,37.85H190c-1.33-3.64-3.24-7.11-3.85-10.8-2.23-13.55-3.36-27.31-6.14-40.73-4.44-21.54-7.28-43-7.28-65.15,0-20.61,3-39.39,18-54.87,8.17-8.45,14.66-18.8,26.81-21.35C218.06,553.91,218.53,549.24,219.05,544ZM737.34,752.62c-5.67-7.84-10.29-14.56-15.27-21-4-5.19-9.69-9.45-12.41-15.17-8.53-17.93-15.74-36.48-24-54.53C682.54,655.14,678,649,674,642.69c-2-3.07-4.63-5.72-6.59-8.8-6.13-9.6-11.58-19.68-18.26-28.88-5.78-8-12.88-15-21-24.21-2.92,6.63-5.15,11.6-7.31,16.6-1.59,3.68-2.21,8.22-4.79,10.93-6.92,7.27-6.44,16.17-5,24.31,4.33,24.62,9.85,49,14.88,73.52,2.71,13.2,5.86,26.33,7.77,39.64.76,5.29,2.09,7,7.33,6.92,22.93-.22,45.85-.1,68.77-.1ZM551.1,752.2h72.4c-.42-2.49-.85-4.56-1.12-6.64-1.92-14.56-3.37-29.19-5.84-43.66-2.34-13.73-6.08-27.23-8.58-40.94-4.67-25.56-7.4-51.64-23.25-73.71-5.5-7.65-10.31-15.81-15.73-23.53-1-1.38-3.38-1.75-5.12-2.59-.93,2.63-3.2,5.64-2.57,7.81,4.33,14.87,7.54,29.85,7.45,45.42,0,2.17,0,4.34.12,6.51.42,12.22,1,24.42,1.17,36.64a45.79,45.79,0,0,1-1.88,11.89c-3,11.65-7,23.1-9.39,34.89C555.58,720.19,553.58,736.32,551.1,752.2Zm-253.18.42.55-1.49c-2.84-1.84-5.8-3.52-8.51-5.54-12.14-9.07-24.54-17.84-36.21-27.48-10.36-8.54-21.54-16.87-29.39-27.49-11.22-15.19-11.65-34.28-12-52.55-.17-9.44,1.76-18.91,2.64-28.37.22-2.3,0-4.64,0-7l-1.85-.06q-5.47,13.37-10.93,26.72l-1.29-.26q7.47-28.47,14.95-56.93l-2.31-.94c-3.27,2.17-7.82,3.59-9.56,6.63C197.13,590,190,602.24,185,615.2c-4.33,11.15-5,23.2-3.55,35.57,2.39,21,1.41,42.41,7.56,63,3.44,11.48,6.87,23,10.92,34.25.76,2.08,4.44,4.41,6.78,4.44C237.12,752.72,267.52,752.62,297.92,752.62Zm399.16-94-1.47,1.17c6.92,13.78,13.42,27.79,20.86,41.29,7.8,14.15,16.53,27.8,24.81,41.7,4.18,7,9.31,10.73,18.45,10.09,14.91-1,29.94-.28,44.91-.28H834c0-3.62-.25-6.5,0-9.32,1.33-12.68-4-21.13-15.12-27.28-11.73-6.51-22.68-14.39-34.21-21.29A125.21,125.21,0,0,0,766,685.41c-13.58-5.28-27.47-9.8-41.09-15C715.5,666.81,706.34,662.59,697.08,658.65Zm-77.84-85.07c11.93-9.1,25.09-19.22,38.36-29.21,6.6-5,14.24-8.87,19.89-14.71a135.07,135.07,0,0,0,18.18-24.1c3.56-5.88,5-13.05,7.64-20.3-11.29,6.47-20.66,13-30.91,17.43-11.61,5-24.21,7.7-36,12.31-19.62,7.65-35.29,19.68-41.32,40.24Zm-610,179c14.87,0,28.82,0,42.76-.08,1.5,0,3.59-.6,4.38-1.67,4.08-5.63,8.81-11.09,11.5-17.38,6.2-14.48,11.35-29.42,17-44.29-2.21,0-5.46-.73-8.22.12-20.57,6.29-40.42,14.42-58.37,26.4-3.84,2.56-7.89,7.22-8.63,11.47C8.26,735.12,9.24,743.46,9.24,752.62Zm445.53-2.4c.18.8.37,1.59.55,2.39,26.16,0,52.32.06,78.47-.16,1.47,0,3.57-2.14,4.26-3.75,3.17-7.42,6.14-14.93,8.78-22.55,1.5-4.31,2.22-8.88,3.29-13.33C520.42,731.59,487,739.33,454.77,750.22ZM579.63,564.91c7.11,11.3,13.33,21.16,19.5,31,.87,1.4,1.19,3.32,2.35,4.31s3.28,1.52,4.25,1c3.7-2.09,8.55-16.67,7.35-20.93-2.28-8.11-13-15.81-22.67-16C586.62,564.15,582.82,564.69,579.63,564.91Zm2.77-12.1c-.55-1.4-1.1-2.79-1.66-4.19l-9.45,3.47c.76,1.39,1.86,4.06,2.24,4A78.62,78.62,0,0,0,582.4,552.81Z"/></g><g id="Layer_2" data-name="Layer 2"><path id="Tophead" class="cls-1" d="M593.38,230.47c-3.94-.4-8.79-1.07-13.66-1.35-8.84-.5-17.69-.83-26.54-1.12-14.47-.48-28.93-.86-43.39-1.3-1,0-1.91-.2-2.86-.24-12.71-.49-25.42-1.45-38.12-1.37q-68,.39-135.94,1.48c-5.85.09-11.66,1.93-17.51,2.75-7.77,1.08-15.54,2.36-23.35,2.82-12.55.76-22.85,12.76-24.67,24.41a136.39,136.39,0,0,0-1.48,18.51c-.22,12.75-1.1,13.73-13.3,15.22-9.16,1.12-18.24,2.8-27.37,4.18-4.81.73-8.4,0-8.73-6.15-1-18.6-.35-37,10.32-53.1,9-13.59,12.5-28.73,14.12-44.38a67.74,67.74,0,0,0-1.49-22.8c-2.7-10.92.3-20.8,3.63-30.55a200.82,200.82,0,0,1,13-30c2.46-4.59,7.43-8,11.63-11.47,15.51-12.91,33.89-19.17,53.45-22.56a12.22,12.22,0,0,1,2.76-.45c14.52.89,29.08,1.38,43.54,2.87,16.5,1.71,32.88,4.58,49.36,6.47,19.76,2.26,38.34,11.32,58.84,9.45,15.7-1.44,31.47-2.47,47.23-2.8,7.49-.15,15.09,1.46,22.51,3,2.2.45,4.21,3,5.82,5,4.61,5.71,9.65,11.23,13.28,17.54a195.7,195.7,0,0,1,13.66,28.18,333.4,333.4,0,0,1,12.55,39.84c2.15,8.93,2.1,18.43,2.64,27.69C593.68,216.56,593.38,223,593.38,230.47Z"/><path id="Glasses" class="cls-1" d="M278.84,306.29c0-15.12-.26-30.25.08-45.36.28-12.36,7.19-16.22,18.18-19.14,29.74-7.91,59.68-2,89.45-3.55,27.15-1.41,54.4-1.77,81.59-1.49q57.69.58,115.37,2.92c16.29.64,32.37,3.76,47,11.82,9.17,5.06,17.35,20.87,13.19,31.1-7.52,18.45-5.51,37.31-5.08,56,.4,18.06-4.56,21.42-23.65,23.72-15.05,1.81-30.59,1.45-45.73.06s-30.68-5-42.57-15.41c-4.87-4.27-7.52-11.55-10-17.9-3.9-9.82-5.69-20.62-10.5-29.9-4.7-9.05-12.68-14.86-24-16.47C463.35,280.05,453,289,445.4,304.61a305.36,305.36,0,0,1-19.63,34.84c-7.31,11-17.91,18.53-31.72,18.8-22.26.42-44.56.6-66.8-.13-10.32-.33-20.59-2.87-30.82-4.74s-14.09-9.94-15.95-18.76c-2-9.27-2.77-18.77-4.08-28.18Z"/><path id="Bottomhead" class="cls-1" d="M264.6,310.25c.38,6.43,1.65,13.37,1,20.15-1.54,16.64,13.55,31.09,26.8,33.52a364.35,364.35,0,0,0,38.18,4.49c17.65,1.35,35.35,2.23,53,2.94,24,1,42.6-7.74,53.16-30.36,6-12.9,12.35-25.68,17.76-38.84,4.32-10.51,15.88-14.4,24.39-13.37,9.69,1.17,16.19,7.56,18.73,18.76,3.81,16.78,9.33,32.84,19.8,46.76,8.18,10.89,20.1,15.13,32.81,17,17.85,2.58,35.83,4.33,54.78,6.55-.51,4.74-1.42,9.57-1.48,14.42-.2,15.21.06,30.44-.11,45.65-.21,18.42-3,36.48-10.72,53.29-4.26,9.28-11.18,17.38-15,26.78-5.25,12.89-13.12,23.83-21.42,34.64a14,14,0,0,1-2.66,2.42c-.32.24-.9.13-1.38.18-.28-.35-.86-.85-.78-1,6.37-12.88-1.41-25.68-.16-38.5.88-9,2.76-17.92,2.75-26.88,0-12.42-2.12-25-12.7-33.07-11.06-8.39-23.51-14.74-34.15-24-5.29-4.62-13.75-5.84-20.95-8-4.49-1.34-7.3.89-7.45,5.88-.07,2.3-.36,4.6-.64,7.88,2,.18,4.53,1.25,5.91.41,11.46-7,20,.71,28.45,6,9.36,5.88,17.84,13.18,26.48,20.14,1.71,1.38,3.36,4,3.44,6.07.72,20.91,1.43,41.83,1.4,62.75,0,6.2-2.1,12.47-3.71,18.57-1.11,4.16-2.32,7.45-8.55,8-4,.38-7.76,6.36-11.1,10.27-6.71,7.89-14.61,10.12-24.74,7.82-4.63-1-9.88,1-14.82.86-8.89-.29-17.75-1.45-26.64-1.73-4-.12-8.49.05-11.91,1.76-6.1,3.06-11.95,4.66-18.28,1.73-7-3.24-13-3.51-17.76,3.87-.74,1.16-3.06,1.58-4.73,1.84-12.69,2-20.08-5.28-26-15.1a10.4,10.4,0,0,0-1.4-1.56l-7.09,2.86c.57-6,1.27-10.84,1.47-15.74.6-14.63.86-29.28,1.55-43.91.3-6.4.12-13.19,2.23-19.06,5-13.87,14.46-24.48,27.1-32.27,7.6-4.7,14.92-9.85,22.44-14.66,13.13-8.41,28.21-10.28,43.12-12.63.45-.07.94.26,1.4.23,3.12-.26,7.78,6.14,8.85-.59.49-3.11-.69-7.85-7.3-11.11-19.21-9.48-31.92,4.05-45,11.12-17.48,9.44-33.14,22.76-48.07,36.11-5.69,5.08-8.77,14.56-10.23,22.54-2,11-1.24,22.45-1.87,33.7-1.06,19-2.27,38-3.43,57L357,584.39c-12.3-6.27-25.1-11.75-36.75-19.06-10.19-6.39-19.31-14.58-28.45-22.51-3.68-3.2-6.12-7.81-9.14-11.77-9.11-11.95-18.05-24-27.44-35.79-4-4.95-9.08-8.95-13.32-13.7-7.56-8.47-9-19.19-9.31-29.82-.52-15.58-.14-31.19-.14-46.14-1.59,3.45-3.74,7.93-5.72,12.48-1.89,4.32-3.81,8.65-5.31,13.11-2,6-5.82,6.78-11,4.47-2.56-1.13-5.38-1.91-7.64-3.49-13.25-9.25-22.63-21.7-31.24-35.32-9.7-15.33-9.42-32.64-12.81-49.22-1.47-7.19-1.48-14.74-1.53-22.13-.07-9.62,8.05-17.1,17.56-18,19.82-1.8,32.4,10,44.56,22.83,2.4,2.53,4.51,5.34,6.76,8l2.44-.95c-2.4-8.68-4.8-17.36-7.51-27.18ZM386.72,490.77c4.88-.56,8.91-.94,12.9-1.5,11-1.56,22-4.25,33-4.56,16.53-.46,33.2,2,49.64.79a88.2,88.2,0,0,1,34,4.35c6.32,2,13.41,1.64,22.21,2.56-2.5-5.57-3.47-9.62-5.81-12.6-7.42-9.44-15.34-18.5-23.1-27.68-4.53-5.34-10.62-6.39-16.9-4.92-8.91,2.1-17.5,2.18-26.28-.68-3.87-1.27-8.66-2.79-12.15-1.6-8.41,2.85-16.33,7.19-24.42,11a184.59,184.59,0,0,0-30.45,17.85C393.28,478.25,388.23,482.17,386.72,490.77Zm30.29-116c-1.35,1.29-2.73,2.56-4.06,3.89-8.91,8.93-8.75,27.76.39,36.49a5,5,0,0,0,3.2,1.17c7,.1,14,.05,21.72.05-1.61-3.85-2.4-5.72-3.64-8.68,8.72,0,17.47-2.39,23.75.53,11.17,5.18,21.38,5.11,33,3,9.9-1.78,20.88-3.26,29,6.1,9.29-4.36,17.37-16.27,16.33-25.31-.75-6.55-3.59-12.17-9.71-13.09.42,8.67,1,17.4,1.09,26.13,0,1.47-2.33,4-3.81,4.17A8.6,8.6,0,0,1,518,407c-3.1-3.05-5.57-6.73-8.77-10.74,9.29-12.56-3.18-23-5.18-35.05-1.23,3.7-2.49,8.07-1,11.09,5.05,10.31,1.2,23-8.38,27.35-10.18,4.66-20.64,7-31.89,1.58-11.86-5.72-31.15-1.51-38.95,7.67C409.15,400,415.4,387.12,417,374.72ZM526.61,500l-.52-1c-2.46,1-5.23,1.68-7.33,3.22-10.68,7.84-23.07,11.25-35.64,9.48-19.12-2.68-37.95-7.43-56.88-11.44-6.48-1.37-12.88-3.15-19.31-4.74,7.71,4.58,15.81,7.66,23.68,11.26s17.59,4.43,22.39,13.35c.17.31.89.29,1.3.53,5.24,3.11,10.73,5.87,15.65,9.43,6.73,4.87,12.2,4.8,18.43-.65,2.14-1.87,5-2.92,7.54-4.34,5-4.16,10.51-7.73,15.59-11.78C516.74,509.11,521.59,504.45,526.61,500ZM215.15,349.36c-5.22,4.68-8.74,4-11.74-1.19-3.75-6.56-7.21-13.42-11.93-19.23-2.32-2.86-7.16-4.8-10.92-4.92-2.18-.06-5.38,4-6.59,6.79-3.84,9-4,17.64,5.07,24.2,1.54,1.12,3.72,2.59,3.9,4.09.38,3.19.8,8.41-.87,9.45-7,4.35-7.74,10.06-4.79,16.5,3.61,7.88,8.06,15.37,12.15,23l2.76-1.37c-1.71-3.61-3.1-7.42-5.2-10.78-4.79-7.64-4.3-15.71,1.82-22.64,5.07-5.73,3.77-14.66-1.72-21.09-2.8-3.28-4-8.13-5.14-12.48-.37-1.41,1.81-3.49,2.83-5.26,1.86,1.14,4,2,5.51,3.51,1.28,1.28,1.62,3.43,2.72,4.95,2.92,4,5.52,8.48,9.19,11.69C207.57,359.31,213,357.31,215.15,349.36Zm282,200.76c-8.37-12-43.82-9.72-60.6,2.68C456.25,549.62,475.52,539.53,497.14,550.12Z"/><path id="Scarflarge" class="cls-1" d="M619.24,573.58l-24.19-18.34c6-20.56,21.7-32.59,41.32-40.24,11.82-4.61,24.42-7.28,36-12.31,10.25-4.45,19.62-11,30.91-17.43-2.63,7.25-4.08,14.42-7.64,20.3a135.07,135.07,0,0,1-18.18,24.1c-5.65,5.84-13.29,9.74-19.89,14.71C644.33,554.36,631.17,564.48,619.24,573.58Z"/><path id="Scarfsmall" class="cls-1" d="M579.63,564.91c3.19-.22,7-.76,10.78-.66,9.71.23,20.39,7.93,22.67,16,1.2,4.26-3.65,18.84-7.35,20.93-1,.56-3.24-.09-4.25-1s-1.48-2.91-2.35-4.31C593,586.07,586.74,576.21,579.63,564.91Z"/><path id="Shoulder5" class="cls-1" d="M551.1,752.2c2.48-15.88,4.48-32,7.66-47.91,2.35-11.79,6.34-23.24,9.39-34.89A45.79,45.79,0,0,0,570,657.51c-.13-12.22-.75-24.42-1.17-36.64-.07-2.17-.13-4.34-.12-6.51.09-15.57-3.12-30.55-7.45-45.42-.63-2.17,1.64-5.18,2.57-7.81,1.74.84,4.15,1.21,5.12,2.59,5.42,7.72,10.23,15.88,15.73,23.53C600.56,609.32,603.29,635.4,608,661c2.5,13.71,6.24,27.21,8.58,40.94,2.47,14.47,3.92,29.1,5.84,43.66.27,2.08.7,4.15,1.12,6.64Z"/><path id="Shoulder6" class="cls-1" d="M737.34,752.62H709.81c-22.92,0-45.84-.12-68.77.1-5.24,0-6.57-1.63-7.33-6.92-1.91-13.31-5.06-26.44-7.77-39.64-5-24.5-10.55-48.9-14.88-73.52-1.44-8.14-1.92-17,5-24.31,2.58-2.71,3.2-7.25,4.79-10.93,2.16-5,4.39-10,7.31-16.6,8.08,9.22,15.18,16.24,21,24.21,6.68,9.2,12.13,19.28,18.26,28.88,2,3.08,4.61,5.73,6.59,8.8,4.06,6.3,8.57,12.45,11.67,19.22,8.28,18.05,15.49,36.6,24,54.53,2.72,5.72,8.41,10,12.41,15.17C727.05,738.06,731.67,744.78,737.34,752.62Z"/><path id="Shoulder7" class="cls-1" d="M697.08,658.65c9.26,3.94,18.42,8.16,27.81,11.75,13.62,5.21,27.51,9.73,41.09,15a125.21,125.21,0,0,1,18.73,9.32c11.53,6.9,22.48,14.78,34.21,21.29,11.08,6.15,16.45,14.6,15.12,27.28-.3,2.82,0,5.7,0,9.32H804.64c-15,0-30-.75-44.91.28-9.14.64-14.27-3.08-18.45-10.09-8.28-13.9-17-27.55-24.81-41.7-7.44-13.5-13.94-27.51-20.86-41.29Z"/><path id="Shoulder4" class="cls-1" d="M454.77,750.22c32.18-10.89,65.65-18.63,95.35-37.4-1.07,4.45-1.79,9-3.29,13.33-2.64,7.62-5.61,15.13-8.78,22.55-.69,1.61-2.79,3.73-4.26,3.75-26.15.22-52.31.16-78.47.16C455.14,751.81,455,751,454.77,750.22Z"/><path id="Neck" class="cls-1" d="M556.63,575.38c2.55,17,6.31,34.08,7.27,51.26.75,13.41-1.89,27-3.21,40.53-.35,3.5-1.73,6.91-2,10.41-.58,7-3.34,13.08-8.51,17.3-12.6,10.3-25.37,20.57-41.09,25.91-15.36,5.22-31,9.46-45.52,17.17-7,3.72-15.8,4.29-23.85,5.9-11.34,2.27-22.73,4.36-34.14,6.19a188.81,188.81,0,0,1-21.94,2.47c-9.89.42-19.94-.95-29.67.31-22.56,2.93-42.79-4.22-62.22-13.69-8.56-4.16-15.8-11.34-23-17.82-13.48-12.08-26.58-24.6-39.68-37.1a8.21,8.21,0,0,1-2.25-5.49c.26-11.5-.9-23.41,1.69-34.42,7.4-31.51,3-63.28,3.55-94.9.16-10-5.43-20-7.38-30.18-2.72-14.15-4.59-28.47-6.62-42.75a149.74,149.74,0,0,1-1.38-16.37c-.06-1.62,1.24-3.29,2.16-5.52,2.36,9.35,3.42,17.69,6.65,25.08,2.62,6,7.7,11,12,16.21,9.56,11.69,19.8,22.85,28.84,34.92,14.62,19.53,31.19,36.65,52.25,49.4,7.65,4.63,14,11.33,21.34,16.56,3.36,2.39,7.75,3.26,11.44,5.25,4.52,2.42,8.59,5.75,13.23,7.86,8.63,3.93,17.47,7.45,26.36,10.77a137.1,137.1,0,0,0,14.88,4.16c4.78,1.19,9.58,2.37,14.43,3.11,7.27,1.09,14.59,2.4,21.9,2.5,8.3.12,16.62-.87,24.91-1.61,6.62-.59,13.19-2,19.82-2.18,13.5-.38,24.81-4.5,33.94-15.11,6-7,13.66-12.45,20.22-19C546.41,587.16,551.33,581.24,556.63,575.38Z"/><path id="Shoulder3" class="cls-1" d="M297.92,752.62c-30.4,0-60.8.1-91.21-.19-2.34,0-6-2.36-6.78-4.44-4.05-11.27-7.48-22.77-10.92-34.25-6.15-20.56-5.17-42-7.56-63-1.41-12.37-.78-24.42,3.55-35.57,5-13,12.13-25.19,19.07-37.31,1.74-3,6.29-4.46,9.56-6.63l2.31.94q-7.47,28.45-14.95,56.93l1.29.26q5.46-13.35,10.93-26.72l1.85.06c0,2.33.18,4.67,0,7-.88,9.46-2.81,18.93-2.64,28.37.33,18.27.76,37.36,12,52.55,7.85,10.62,19,19,29.39,27.49,11.67,9.64,24.07,18.41,36.21,27.48,2.71,2,5.67,3.7,8.51,5.54Z"/><path id="Shoulder2" class="cls-1" d="M219.05,544c-.52,5.23-1,9.9-1.52,15.28-12.15,2.55-18.64,12.9-26.81,21.35-15,15.48-18,34.26-18,54.87,0,22.11,2.84,43.61,7.28,65.15,2.78,13.42,3.91,27.18,6.14,40.73.61,3.69,2.52,7.16,3.85,10.8H71.27c6-12.64,12.47-25,17.63-37.85,3.84-9.56,5-20.23,9-29.69,7.64-17.94,14-36.61,27-51.89,3.48-4.08,5.39-9.47,8.65-13.77,8.83-11.62,17-23.94,27.26-34.21C177.55,568,195,551.71,219.05,544Z"/><path id="Shoulder1" class="cls-1" d="M9.24,752.62c0-9.16-1-17.5.39-25.43.74-4.25,4.79-8.91,8.63-11.47,18-12,37.8-20.11,58.37-26.4,2.76-.85,6-.12,8.22-.12-5.62,14.87-10.77,29.81-17,44.29-2.69,6.29-7.42,11.75-11.5,17.38-.79,1.07-2.88,1.66-4.38,1.67C38.06,752.67,24.11,752.62,9.24,752.62Z"/></g></svg>